<svg xmlns="http://www.w3.org/2000/svg" shape-rendering="crispEdges" viewBox="0 0 101 17" width="606px" height="102px" id="svg--congrats">
    <polygon points="0,1 3,1"></polygon>
    <polygon points="4,1 7,1"></polygon>
    <polygon points="8,1 11,1"></polygon>
    <polygon class="pixel--red" points="13,1 16,1 16,2 12,2 12,5 16,5 16,6 13,6"></polygon>
    <polygon class="pixel--blue" points="18,2 18,1 20,1 20,2 17,2 17,5 18,5 18,2 18,5 20,5 20,6 18,6 18,5 21,5 21,2 20,2 20,5 18,5"></polygon>
    <polygon class="pixel--green" points="22,1 22,6 23,6 23,3 25,3 25,1 26,1 26,6 25,6 25,4 24,4 24,2 23,2 23,1"></polygon>
    <polygon class="pixel--purple" points="30,1 30,2 27,2 27,2 27,5 31,5 31,3 29,3 29,4 30,4 30,6 28,6 28,1"></polygon>
    <polygon class="pixel--orange" points="35,2 35,3 36,3 36,2 35,2 35,1 32,1 32,6 33,6 33,4 35,4 35,3 33,3 33,2 35,2 35,6 36,6 36,4 35,4"></polygon>
    <polygon class="pixel--denim" points="37,2 37,6 38,6 38,4 40,4 40,6 41,6 41,2 40,2 40,3 38,3 38,1 40,1 40,2"></polygon>
    <polygon class="pixel--red" points="42,1 47,1 47,2 45,2 45,6 44,6 44,2 42,2"></polygon>
    <polygon class="pixel--gold" points="48,1 49,1 49,6 51,6 51,1 52,1 52,5 48,5"></polygon>
    <polygon class="pixel--teal" points="53,1 54,1 54,5 57,5 57,6 53,6"></polygon>
    <polygon class="pixel--brown" points="58,2 58,6 59,6 59,4 61,4 61,6 62,6 62,2 61,2 61,3 59,3 59,1 61,1 61,2"></polygon>
    <polygon class="pixel--red" points="63,1 68,1 68,2 66,2 66,6 65,6 65,2 63,2"></polygon>
    <polygon class="pixel--green" points="69,1 72,1 72,2 71,2 71,5 72,5 72,6 69,6 69,5 70,5 70,2 69,2"></polygon>
    <polygon class="pixel--orange" points="74,2 74,1 76,1 76,2 73,2 73,5 74,5 74,2 74,5 76,5 76,6 74,6 74,5 77,5 77,2 76,2 76,5 74,5"></polygon>
    <polygon class="pixel--blue" points="78,1 78,6 79,6 79,3 81,3 81,1 82,1 82,6 81,6 81,4 80,4 80,2 79,2 79,1"></polygon>
    <polygon class="pixel--dark-red" points="84,1 87,1 87,2 83,2 83,3 86,3 86,6 83,6 83,5 87,5 87,4 84,4"></polygon>
    <polygon class="pixel--purple" points="88,1 90,1 90,4 88,4 88,1 88,6 90,6 90,5 88,5"></polygon>
    <polygon points="91,1 94,1"></polygon>
    <polygon points="95,1 98,1"></polygon>
    <polygon points="0,11 1,11 1,13 3,13 3,11 4,11 4,15 1,15 1,16 3,16 3,14 0,14"></polygon>
    <polygon points="6,12 6,11 8,11 8,12 5,12 5,15 6,15 6,12 6,15 8,15 8,16 6,16 6,15 9,15 9,12 8,12 8,15 6,15"></polygon>
    <polygon points="10,11 11,11 11,16 13,16 13,11 14,11 14,15 10,15"></polygon>
    <polygon points="15,11 18,11"></polygon>
    <polygon points="19,11 20,11 20,16 21,16 21,13 22,13 22,16 23,16 23,11 24,11 24,15 19,15"></polygon>
    <polygon points="25,11 28,11 28,12 27,12 27,15 28,15 28,16 25,16 25,15 26,15 26,12 25,12"></polygon>
    <polygon points="29,11 29,16 30,16 30,13 32,13 32,11 33,11 33,16 32,16 32,14 31,14 31,12 30,12 30,11"></polygon>
    <polygon points="34,11 37,11"></polygon>
    <polygon points="38,11 43,11 43,12 41,12 41,16 40,16 40,12 38,12"></polygon>
    <polygon points="44,11 45,11 45,13 47,13 47,11 48,11 48,16 47,16 47,14 45,14 45,16 44,16"></polygon>
    <polygon points="53,12 53,11 49,11 49,16 53,16 53,15 50,15 50,14 52,14 52,13 50,13 50,12"></polygon>
    <polygon points="54,11 57,11"></polygon>
    <polygon points="58,11 61,11 61,12 60,12 60,15 61,15 61,16 58,16 58,15 59,15 59,12 58,12"></polygon>
    <polygon points="62,11 62,16 63,16 63,13 65,13 65,11 66,11 66,16 65,16 65,14 64,14 64,12 63,12 63,11"></polygon>
    <polygon points="67,11 72,11 72,12 70,12 70,16 69,16 69,12 67,12"></polygon>
    <polygon points="77,12 77,11 73,11 73,16 77,16 77,15 74,15 74,14 76,14 76,13 74,13 74,12"></polygon>
    <polygon points="81,12 81,13 82,13 82,12 81,12 81,11 78,11 78,16 79,16 79,14 81,14 81,13 79,13 79,12 81,12 81,16 82,16 82,14 81,14"></polygon>
    <polygon points="83,11 83,16 84,16 84,13 86,13 86,11 87,11 87,16 86,16 86,14 85,14 85,12 84,12 84,11"></polygon>
    <polygon points="92,12 92,11 88,11 88,16 92,16 92,15 89,15 89,14 91,14 91,13 89,13 89,12"></polygon>
    <polygon points="93,11 98,11 98,12 96,12 96,16 95,16 95,12 93,12"></polygon>
    <polygon points="99,11 101,11 101,14 99,14 99,11 99,16 101,16 101,15 99,15"></polygon>
</svg>
